<?xml version="1.0" encoding="UTF-8"?>
<svg width="44px" height="58px" viewBox="0 0 44 58" version="1.1" xmlns="http://www.w3.org/2000/svg" xmlns:xlink="http://www.w3.org/1999/xlink">
    <!-- Generator: Sketch 49 (51002) - http://www.bohemiancoding.com/sketch -->
    <title>collaboration</title>
    <desc>Created with Sketch.</desc>
    <defs></defs>
    <g id="Page-1" stroke="none" stroke-width="1" fill="none" fill-rule="evenodd">
        <g id="ABOUT-COMPANY---Overview" transform="translate(-137.000000, -843.000000)" fill="#B1B3B5" fill-rule="nonzero">
            <g id="collaboration" transform="translate(137.000000, 843.000000)">
                <path d="M22,0 C15.3725,0 10,5.3725 10,12 C10,18.6275 15.3725,24 22,24 C28.62475,23.9935 33.9935,18.62475 34,12 C34,5.3725 28.6275,0 22,0 Z M22,20.5714286 C17.2661607,20.5714286 13.4285714,16.7338393 13.4285714,12 C13.4285714,7.26616071 17.2661607,3.42857143 22,3.42857143 C26.7338393,3.42857143 30.5714286,7.26616071 30.5714286,12 C30.5714286,16.7338393 26.7338393,20.5714286 22,20.5714286 Z" id="Shape"></path>
                <path d="M31.7777778,24 L31.2008889,24 L30.6851111,24.255 C25.2153611,26.9607321 18.7846389,26.9607321 13.3148889,24.255 L12.7991111,24 L12.2222222,24 C5.47555556,24.0078929 0.00794444444,29.44 0,36.1428571 L0,50.7142857 C0,54.738125 3.28319444,58 7.33333333,58 L36.6666667,58 C40.7168056,58 44,54.738125 44,50.7142857 L44,36.1428571 C43.9920556,29.44 38.5244444,24.0078929 31.7777778,24 Z M39.1111111,50.7142857 C39.1111111,52.0554643 38.0166111,53.1428571 36.6666667,53.1428571 L7.33333333,53.1428571 C5.98338889,53.1428571 4.88888889,52.0554643 4.88888889,50.7142857 L4.88888889,36.1428571 C4.8895,32.3202857 7.86347222,29.1479643 11.7015556,28.8765714 C18.2328056,31.888 25.7675,31.888 32.2984444,28.8765714 C36.1362222,29.1479643 39.1105,32.3202857 39.1111111,36.1428571 L39.1111111,50.7142857 Z" id="Shape"></path>
            </g>
        </g>
    </g>
</svg>