<?xml version="1.0" encoding="UTF-8"?>
<svg width="46px" height="46px" viewBox="0 0 46 46" version="1.1" xmlns="http://www.w3.org/2000/svg" xmlns:xlink="http://www.w3.org/1999/xlink">
    <!-- Generator: Sketch 49 (51002) - http://www.bohemiancoding.com/sketch -->
    <title>Group 20</title>
    <desc>Created with Sketch.</desc>
    <defs></defs>
    <g id="Page-1" stroke="none" stroke-width="1" fill="none" fill-rule="evenodd">
        <g id="MCS-landing-page" transform="translate(-643.000000, -5778.000000)" fill="#FFFFFF">
            <g id="Group-20" transform="translate(643.000000, 5778.000000)">
                <path d="M46,23 C46,10.2976863 35.7022386,0 23,0 C10.2976863,0 0,10.2976863 0,23 C0,35.7022386 10.2976863,46 23,46 C35.7022386,46 46,35.7022386 46,23 Z M2,23 C2,11.4016939 11.4016939,2 23,2 C34.5983061,2 44,11.4016939 44,23 C44,34.5983061 34.5983061,44 23,44 C11.4016939,44 2,34.5983061 2,23 Z" id="Shape-Copy-5" fill-rule="nonzero"></path>
                <g id="Group-5" transform="translate(16.000000, 15.000000)">
                    <path d="M14,13.974625 L11.099375,13.974625 L11.099375,9.435125 C11.099375,8.35275 11.080125,6.960625 9.59175,6.960625 C8.082375,6.960625 7.85225,8.140125 7.85225,9.358125 L7.85225,13.974625 L4.95425,13.974625 L4.95425,4.640125 L7.735,4.640125 L7.735,5.91675 L7.77525,5.91675 C8.162,5.182625 9.10875,4.40825 10.520125,4.40825 C13.4575,4.40825 14,6.341125 14,8.855 L14,13.974625 Z" id="Path"></path>
                    <path d="M1.6835,3.36525 C0.751625,3.36525 0,2.611 0,1.682625 C0,0.75425 0.751625,0 1.6835,0 C2.611,0 3.364375,0.75425 3.364375,1.682625 C3.364375,2.611 2.611,3.36525 1.6835,3.36525 L1.6835,3.36525 Z" id="Path"></path>
                    <polygon id="Path" points="3.13425 13.974625 0.230125 13.974625 0.230125 4.640125 3.13425 4.640125"></polygon>
                </g>
            </g>
        </g>
    </g>
</svg>