<?xml version="1.0" encoding="UTF-8"?>
<svg width="23px" height="22px" viewBox="0 0 23 22" version="1.1" xmlns="http://www.w3.org/2000/svg" xmlns:xlink="http://www.w3.org/1999/xlink">
    <!-- Generator: Sketch 49 (51002) - http://www.bohemiancoding.com/sketch -->
    <title>linkedin-letters</title>
    <desc>Created with Sketch.</desc>
    <defs></defs>
    <g id="Page-1" stroke="none" stroke-width="1" fill="none" fill-rule="evenodd">
        <g id="Newsletter" transform="translate(-400.000000, -1603.000000)" fill="#53565A">
            <g id="linkedin-letters" transform="translate(400.000000, 1603.000000)">
                <polygon id="Fill-1" points="0 22 5 22 5 7 0 7"></polygon>
                <path d="M21.44811,8.6794026 C20.4130587,7.55949823 19.0445927,7 17.3431699,7 C16.7171012,7 16.147365,7.07626426 15.6346483,7.22879279 C15.1221605,7.38222922 14.6891335,7.59672245 14.3357963,7.87249947 C13.9824591,8.1491844 13.7017129,8.40544139 13.4924127,8.64217837 C13.2938752,8.86643162 13.0996886,9.12790909 12.9109978,9.42411403 L12.9109978,7.33955755 L8,7.33955755 L8.01534257,8.04976848 C8.0251893,8.52324244 8.02954018,9.98270435 8.02954018,12.4288352 C8.02954018,14.874966 8.01969345,18.0651273 8,22 L12.9109978,22 L12.9109978,13.8190691 C12.9109978,13.3163151 12.9654983,12.9172896 13.0747283,12.6213116 C13.2840285,12.1176497 13.5995817,11.6966075 14.022762,11.356142 C14.4459422,11.0156765 14.9701087,10.8454438 15.5970933,10.8454438 C16.4530716,10.8454438 17.0821171,11.138925 17.4853749,11.7256605 C17.8879458,12.3126229 18.0901472,13.1240656 18.0901472,14.1595345 L18.0901472,22 L23,22 L23,13.5975396 C23,11.4376267 22.4829323,9.79817208 21.44811,8.6794026 Z" id="Fill-2"></path>
                <path d="M2.51366028,0 C1.76547059,0 1.15970438,0.236663825 0.69553239,0.709094172 C0.231567714,1.1821975 0,1.77890439 0,2.50011216 C0,3.21167392 0.225141036,3.80658621 0.675423108,4.28417605 C1.12570518,4.76176589 1.72089847,5 2.45934448,5 L2.48608776,5 C3.24339918,5 3.85310432,4.76176589 4.317069,4.28417605 C4.78103368,3.80658621 5.00866246,3.21167392 4.99974804,2.50011216 C4.99083361,1.77890439 4.76092439,1.1821975 4.31064232,0.709094172 C3.86036025,0.236663825 3.26102072,0 2.51366028,0 Z" id="Fill-3"></path>
            </g>
        </g>
    </g>
</svg>