<?xml version="1.0" encoding="UTF-8"?>
<svg width="25px" height="34px" viewBox="0 0 25 34" version="1.1" xmlns="http://www.w3.org/2000/svg" xmlns:xlink="http://www.w3.org/1999/xlink">
    <!-- Generator: Sketch 49 (51002) - http://www.bohemiancoding.com/sketch -->
    <title>placeholder (2)</title>
    <desc>Created with Sketch.</desc>
    <defs></defs>
    <g id="Page-1" stroke="none" stroke-width="1" fill="none" fill-rule="evenodd">
        <g id="MCS-landing-page" transform="translate(-99.000000, -5543.000000)" fill="#55585C" fill-rule="nonzero">
            <g id="placeholder-(2)" transform="translate(100.000000, 5544.000000)">
                <path d="M11,8 C8.79485714,8 7,9.79485714 7,12 C7,14.2051429 8.79485714,16 11,16 C13.2051429,16 15,14.2051429 15,12 C15,9.79485714 13.2051429,8 11,8 Z M11,14.8571429 C9.42457143,14.8571429 8.14285714,13.5754286 8.14285714,12 C8.14285714,10.4245714 9.42457143,9.14285714 11,9.14285714 C12.5754286,9.14285714 13.8571429,10.4245714 13.8571429,12 C13.8571429,13.5754286 12.5754286,14.8571429 11,14.8571429 Z" id="Shape"></path>
                <path d="M19.6334126,3.38515624 C17.4612146,1.20231203 14.5729468,0 11.5011637,0 C8.42878083,0 5.54111279,1.20231203 3.36891473,3.38515624 C-0.65103104,7.42420147 -1.15060061,15.0237778 2.28701377,19.6281206 L11.5011637,33 L20.7015199,19.6468031 C24.152928,15.0237778 23.6533584,7.42420147 19.6334126,3.38515624 Z M19.7287686,18.9422905 L11.5011637,30.8822434 L3.2603648,18.9236079 C0.142402983,14.7459503 0.589196896,7.88282777 4.2175233,4.23732126 C6.16302593,2.28228354 8.74963284,1.20532535 11.5011637,1.20532535 C14.2526945,1.20532535 16.8393014,2.28228354 18.7854038,4.23732126 C22.4137302,7.88282777 22.8605241,14.7459503 19.7287686,18.9422905 Z" id="Shape" stroke="#55585C"></path>
            </g>
        </g>
    </g>
</svg>