<?xml version="1.0" encoding="UTF-8"?>
<svg width="25px" height="18px" viewBox="0 0 25 18" version="1.1" xmlns="http://www.w3.org/2000/svg" xmlns:xlink="http://www.w3.org/1999/xlink">
    <!-- Generator: Sketch 49 (51002) - http://www.bohemiancoding.com/sketch -->
    <title>mail (2)</title>
    <desc>Created with Sketch.</desc>
    <defs></defs>
    <g id="Page-1" stroke="none" stroke-width="1" fill="none" fill-rule="evenodd">
        <g id="Newsletter" transform="translate(-553.000000, -1606.000000)" fill-rule="nonzero">
            <g id="mail-(2)" transform="translate(553.000000, 1606.000000)">
                <g id="Group" transform="translate(4.000000, 9.000000)" fill="#000000">
                    <path d="M16.2787143,5.58 C16.1791429,5.58 16.0795714,5.54142857 16.0018571,5.46342857 L11.3438571,0.836571429 C11.1811429,0.675428571 11.1730476,0.403714286 11.3260476,0.231428571 C11.4790476,0.0574285714 11.7340476,0.0497142857 11.898381,0.212571429 L16.556381,4.83942857 C16.7190952,5.00057143 16.7271905,5.27228571 16.5741905,5.44457143 C16.4940476,5.53457143 16.3871905,5.58 16.2787143,5.58 Z" id="Shape"></path>
                    <path d="M0.730190476,5.58 C0.62252381,5.58 0.514857143,5.53457143 0.434714286,5.44457143 C0.281714286,5.27228571 0.289809524,5.00057143 0.45252381,4.83942857 L5.11214286,0.212571429 C5.27566667,0.0514285714 5.53228571,0.0582857143 5.68447619,0.231428571 C5.83747619,0.403714286 5.82938095,0.675428571 5.66666667,0.836571429 L1.00704762,5.46342857 C0.929333333,5.54142857 0.829761905,5.58 0.730190476,5.58 Z" id="Shape"></path>
                </g>
                <path d="M22.9846511,18 L2.0153489,18 C0.904488585,18 0,17.0847734 0,15.958906 L0,2.04109403 C0,0.915226561 0.904488585,0 2.0153489,0 L22.9846511,0 C24.0955114,0 25,0.915226561 25,2.04109403 L25,15.958906 C25,17.0847734 24.0955114,18 22.9846511,18 Z M2.0153489,0.816437611 C1.34867148,0.816437611 0.806139559,1.36590012 0.806139559,2.04109403 L0.806139559,15.958906 C0.806139559,16.6340999 1.34867148,17.1835624 2.0153489,17.1835624 L22.9846511,17.1835624 C23.6513285,17.1835624 24.1938604,16.6340999 24.1938604,15.958906 L24.1938604,2.04109403 C24.1938604,1.36590012 23.6513285,0.816437611 22.9846511,0.816437611 L2.0153489,0.816437611 Z" id="Shape" fill="#53565A"></path>
                <path d="M13.0066986,12 C12.4689376,12 11.9311765,11.8091719 11.521993,11.4283791 L1.13875713,1.75658755 C0.970555184,1.60029844 0.952764593,1.32744012 1.09913264,1.14697369 C1.24711801,0.96737074 1.50184692,0.950964702 1.67004887,1.10552686 L12.0532847,10.7764549 C12.5700205,11.2574109 13.4433768,11.2574109 13.9593039,10.7764549 L24.3296011,1.12106942 C24.4969944,0.964780313 24.7517233,0.982049828 24.9005174,1.16251625 C25.0468854,1.34298268 25.0299035,1.61497753 24.8617015,1.77213011 L14.4914043,11.4275156 C14.0814121,11.8091719 13.5444597,12 13.0066986,12 Z" id="Shape" fill="#53565A"></path>
            </g>
        </g>
    </g>
</svg>