<?xml version="1.0" encoding="UTF-8"?>
<svg width="30px" height="22px" viewBox="0 0 30 22" version="1.1" xmlns="http://www.w3.org/2000/svg" xmlns:xlink="http://www.w3.org/1999/xlink">
    <!-- Generator: Sketch 49 (51002) - http://www.bohemiancoding.com/sketch -->
    <title>mail (1)</title>
    <desc>Created with Sketch.</desc>
    <defs></defs>
    <g id="Page-1" stroke="none" stroke-width="1" fill="none" fill-rule="evenodd">
        <g id="MCS-landing-page" transform="translate(-100.000000, -5624.000000)" fill="#595C60" fill-rule="nonzero" stroke="#55585C">
            <g id="mail-(1)" transform="translate(101.000000, 5625.000000)">
                <g id="Group" transform="translate(5.000000, 10.000000)">
                    <path d="M18.1938571,5.58 C18.0825714,5.58 17.9712857,5.54142857 17.8844286,5.46342857 L12.6784286,0.836571429 C12.4965714,0.675428571 12.4875238,0.403714286 12.6585238,0.231428571 C12.8295238,0.0574285714 13.1145238,0.0497142857 13.2981905,0.212571429 L18.5041905,4.83942857 C18.6860476,5.00057143 18.6950952,5.27228571 18.5240952,5.44457143 C18.4345238,5.53457143 18.3150952,5.58 18.1938571,5.58 Z" id="Shape"></path>
                    <path d="M0.816095238,5.58 C0.695761905,5.58 0.575428571,5.53457143 0.485857143,5.44457143 C0.314857143,5.27228571 0.323904762,5.00057143 0.505761905,4.83942857 L5.71357143,0.212571429 C5.89633333,0.0514285714 6.18314286,0.0582857143 6.3532381,0.231428571 C6.5242381,0.403714286 6.51519048,0.675428571 6.33333333,0.836571429 L1.12552381,5.46342857 C1.03866667,5.54142857 0.927380952,5.58 0.816095238,5.58 Z" id="Shape"></path>
                </g>
                <path d="M25.7428092,20 L2.25719076,20 C1.01302722,20 0,18.9830816 0,17.7321177 L0,2.26788225 C0,1.0169184 1.01302722,0 2.25719076,0 L25.7428092,0 C26.9869728,0 28,1.0169184 28,2.26788225 L28,17.7321177 C28,18.9830816 26.9869728,20 25.7428092,20 Z M2.25719076,0.907152901 C1.51051206,0.907152901 0.902876306,1.5176668 0.902876306,2.26788225 L0.902876306,17.7321177 C0.902876306,18.4823332 1.51051206,19.0928471 2.25719076,19.0928471 L25.7428092,19.0928471 C26.4894879,19.0928471 27.0971237,18.4823332 27.0971237,17.7321177 L27.0971237,2.26788225 C27.0971237,1.5176668 26.4894879,0.907152901 25.7428092,0.907152901 L2.25719076,0.907152901 Z" id="Shape"></path>
                <path d="M14.507536,13 C13.9025548,13 13.2975736,12.7918239 12.8372421,12.3764135 L1.15610178,1.82536823 C0.966874582,1.65487103 0.946860167,1.3572074 1.11152422,1.16033493 C1.27800776,0.964404444 1.56457779,0.946506947 1.75380498,1.11512021 L13.4349453,11.6652235 C14.0162731,12.1899028 14.9987989,12.1899028 15.5792169,11.6652235 L27.2458013,1.13207573 C27.4341187,0.961578523 27.7206887,0.980417994 27.888082,1.17729046 C28.0527461,1.37416292 28.0336414,1.67088458 27.8444142,1.84232376 L16.1778299,12.3754716 C15.7165886,12.7918239 15.1125171,13 14.507536,13 Z" id="Shape"></path>
            </g>
        </g>
    </g>
</svg>