<?xml version="1.0" encoding="UTF-8"?>
<svg width="79px" height="79px" viewBox="0 0 79 79" version="1.1" xmlns="http://www.w3.org/2000/svg" xmlns:xlink="http://www.w3.org/1999/xlink">
    <!-- Generator: Sketch 49 (51002) - http://www.bohemiancoding.com/sketch -->
    <title>maps-and-flags</title>
    <desc>Created with Sketch.</desc>
    <defs></defs>
    <g id="Page-1" stroke="none" stroke-width="1" fill="none" fill-rule="evenodd">
        <g id="Message-Apply-Now" transform="translate(-305.000000, -150.000000)" fill-rule="nonzero">
            <g id="maps-and-flags" transform="translate(305.000000, 150.000000)">
                <path d="M39.5,79 C17.7200703,79 0,61.2799297 0,39.5 C0,17.7200703 17.7200703,0 39.5,0 C61.2799297,0 79,17.7200703 79,39.5 C79,61.2799297 61.2799297,79 39.5,79 Z" id="Shape" fill="#307FE2"></path>
                <path d="M58.2146075,65.8090144 C36.3289527,65.8090144 18.5228649,48.0561456 18.5228649,26.2359029 C18.5228649,17.1020887 21.6730869,8.70470533 26.9063501,2 C11.2823778,7.32181058 0,22.0703692 0,39.4268885 C0,61.2471312 17.8060878,79 39.6917426,79 C52.4162021,79 63.7314496,72.9753029 71,63.6627914 C66.9816762,65.0316191 62.691557,65.8090144 58.2146075,65.8090144 Z" id="Shape" fill="#307FE2"></path>
                <path d="M30.7894317,61 C30.1025405,61 29.4153452,60.7294339 28.8915868,60.1886153 L12.7864357,43.5733453 C11.7378548,42.4923356 11.7378548,40.7385965 12.7864357,39.6574299 C13.8336483,38.575636 15.5349128,38.575636 16.5821254,39.6574299 L30.7895837,54.3141149 L58.4178746,25.8113455 C59.4650872,24.7295515 61.1663517,24.7295515 62.2135643,25.8113455 C63.2621452,26.8923552 63.2621452,28.6460943 62.2135643,29.7272608 L32.6872765,60.1886153 C32.1636702,60.7294339 31.4763229,61 30.7894317,61 Z" id="Shape" fill="#FFFFFF"></path>
            </g>
        </g>
    </g>
</svg>