<?xml version="1.0" encoding="UTF-8"?>
<svg width="31px" height="24px" viewBox="0 0 31 24" version="1.1" xmlns="http://www.w3.org/2000/svg" xmlns:xlink="http://www.w3.org/1999/xlink">
    <!-- Generator: Sketch 49 (51002) - http://www.bohemiancoding.com/sketch -->
    <title>twitter-logo-silhouette</title>
    <desc>Created with Sketch.</desc>
    <defs></defs>
    <g id="Page-1" stroke="none" stroke-width="1" fill="none" fill-rule="evenodd">
        <g id="Newsletter" transform="translate(-249.000000, -1602.000000)" fill="#53565A" fill-rule="nonzero">
            <g id="twitter-logo-silhouette" transform="translate(249.000000, 1602.000000)">
                <path d="M31,2.83957765 C29.8590259,3.32144215 28.6347772,3.64823714 27.3484777,3.7941338 C28.6618769,3.04451852 29.6672511,1.85552353 30.1437502,0.443097126 C28.9117515,1.13728906 27.5518522,1.64136153 26.1028531,1.91461602 C24.9425293,0.734842161 23.2920805,0 21.4614566,0 C17.9494346,0 15.1018368,2.71405438 15.1018368,6.05953906 C15.1018368,6.53401701 15.1580117,6.99743924 15.2665119,7.44058465 C9.98201631,7.18760699 5.29609526,4.77451878 2.15987281,1.10774281 C1.61164806,2.0013719 1.29977337,3.04263567 1.29977337,4.15414418 C1.29977337,6.25709337 2.42332259,8.1126169 4.12802145,9.19820003 C3.08582204,9.16498464 2.10562272,8.89173015 1.24749877,8.43752904 L1.24749877,8.51322923 C1.24749877,11.4488322 3.44034712,13.8988532 6.34796952,14.4564662 C5.8152448,14.5930934 5.25349551,14.6687936 4.67234587,14.6687936 C4.26169651,14.6687936 3.86457167,14.6300262 3.47519685,14.5561606 C4.28489589,16.9655797 6.6327445,18.7176913 9.41449251,18.7657281 C7.23906902,20.390482 4.49607107,21.3560938 1.51677372,21.3560938 C1.00344935,21.3560938 0.497824343,21.3265476 0,21.2730071 C2.8146729,22.9956208 6.15624535,24 9.7476924,24 C21.4460579,24 27.8405782,14.7648189 27.8405782,6.75561385 L27.819253,5.97094861 C29.0686766,5.12159061 30.1495754,4.05444974 31,2.83957765 Z" id="Shape"></path>
            </g>
        </g>
    </g>
</svg>