<?xml version="1.0" encoding="UTF-8"?>
<svg width="96px" height="44px" viewBox="0 0 96 44" version="1.1" xmlns="http://www.w3.org/2000/svg" xmlns:xlink="http://www.w3.org/1999/xlink">
    <!-- Generator: Sketch 49 (51002) - http://www.bohemiancoding.com/sketch -->
    <title>view</title>
    <desc>Created with Sketch.</desc>
    <defs></defs>
    <g id="Page-1" stroke="none" stroke-width="1" fill="none" fill-rule="evenodd">
        <g id="ABOUT-COMPANY---Overview" transform="translate(-110.000000, -768.000000)" fill="#B1B3B5" fill-rule="nonzero">
            <g id="view" transform="translate(110.000000, 768.000000)">
                <path d="M95.5197335,20.1384615 C82.9068953,7.15169231 66.099166,0 48.1896979,0 C47.9411854,0 47.8831991,0.00846153846 47.8252129,0.00846153846 C30.053255,0.104923077 13.3863495,7.23969231 0.861319044,20.1384615 L0.480266531,20.5310769 C-0.164209241,21.1944615 -0.15923899,22.2656923 0.490207031,22.924 C0.813273292,23.2506154 1.23574456,23.4147692 1.65655907,23.4147692 C2.08234383,23.4147692 2.50978535,23.2472308 2.83285161,22.9138462 L3.21390412,22.5212308 C11.9035582,13.574 22.6939713,7.55953846 34.4535832,4.91784615 C29.5843948,8.954 26.4630777,15.1089231 26.4630777,22 C26.4630777,34.1304615 36.125244,44 48.0008284,44 C59.8764128,44 69.5385791,34.1304615 69.5385791,22 C69.5385791,15.0344615 66.344365,8.82707692 61.3840553,4.79430769 C73.3557312,7.37 84.3432976,13.4369231 93.1671484,22.5229231 C93.8116242,23.188 94.8620037,23.1913846 95.509793,22.5330769 C96.159239,21.8730769 96.1642092,20.8018462 95.5197335,20.1384615 Z M66.225079,21.9983077 C66.225079,32.2621538 58.0490175,40.6136923 48.0008284,40.6136923 C37.9526393,40.6136923 29.7765778,32.2621538 29.7765778,21.9983077 C29.7765778,11.7953846 37.8582045,3.48953846 47.8235561,3.39138462 C47.9030801,3.39138462 47.9826041,3.38630769 48.0621281,3.38630769 C58.0821525,3.42184615 66.225079,11.7564615 66.225079,21.9983077 Z" id="Shape"></path>
                <path d="M58.25,20.25 C57.284,20.25 56.5,21.034 56.5,22 C56.5,27.79075 51.79075,32.5 46,32.5 C40.20925,32.5 35.5,27.79075 35.5,22 C35.5,16.20925 40.20925,11.5 46,11.5 C46.966,11.5 47.75,10.716 47.75,9.75 C47.75,8.784 46.966,8 46,8 C38.28075,8 32,14.28075 32,22 C32,29.71925 38.28075,36 46,36 C53.71925,36 60,29.71925 60,22 C60,21.034 59.216,20.25 58.25,20.25 Z" id="Shape"></path>
            </g>
        </g>
    </g>
</svg>