<?xml version="1.0" encoding="UTF-8"?>
<svg width="58px" height="54px" viewBox="0 0 58 54" version="1.1" xmlns="http://www.w3.org/2000/svg" xmlns:xlink="http://www.w3.org/1999/xlink">
    <!-- Generator: Sketch 49 (51002) - http://www.bohemiancoding.com/sketch -->
    <title>flag</title>
    <desc>Created with Sketch.</desc>
    <defs></defs>
    <g id="Page-1" stroke="none" stroke-width="1" fill="none" fill-rule="evenodd">
        <g id="ABOUT-COMPANY---Overview" transform="translate(-136.000000, -648.000000)" fill="#307FE2" fill-rule="nonzero">
            <g id="flag" transform="translate(136.000000, 648.000000)">
                <path d="M5.60019507,45.0584239 C7.86817809,45.6745618 10.0773844,45.9377381 12.2386986,45.9377381 C18.4545177,45.9377381 24.2752266,43.7730765 29.9696745,41.6553069 C37.8602672,38.7207456 45.3132999,35.9490338 53.3744176,39.1878472 C54.4138947,39.6055124 55.5887034,39.4797403 56.5164322,38.8508798 C57.4456122,38.2212922 58,37.1747665 58,36.0515417 L58,5.20575094 C58,3.84624899 57.1949041,2.62451475 55.9500713,2.09380008 C45.7174805,-2.27805286 36.7471378,1.05745247 28.0724927,4.28317983 C19.9460675,7.3053454 12.2706267,10.159936 3.91308563,6.4176706 C3.06953092,6.03999078 2.09318436,6.11632645 1.31820248,6.61941487 C0.543220596,7.1228668 0.0755466046,7.98509638 0.0755466046,8.91057552 C0.0287429235,9.21519119 0.00189430022,9.42565954 0.00189430022,9.64303446 L0.0755466046,53.8953327 C-0.794131097,54.3726124 6.14297264,53.0116564 5.60019507,53.8953327 L5.60019507,45.0584239 Z M5.52654276,12.7873371 C14.3492181,15.2119034 22.2735529,12.264983 29.9696745,9.40275884 C37.5834361,6.57106895 44.7970081,3.88914236 52.5493667,6.62486742 L52.5493667,33.1551482 C43.7002056,30.7240388 35.7678887,33.6742308 28.0728556,36.5357279 C20.4717926,39.3623288 13.2651142,42.0424378 5.52654276,39.3150734 L5.52654276,12.7873371 Z" id="Shape"></path>
            </g>
        </g>
    </g>
</svg>