<?xml version="1.0" encoding="UTF-8"?>
<svg width="53px" height="53px" viewBox="0 0 53 53" version="1.1" xmlns="http://www.w3.org/2000/svg" xmlns:xlink="http://www.w3.org/1999/xlink">
    <!-- Generator: Sketch 49 (51002) - http://www.bohemiancoding.com/sketch -->
    <title>help</title>
    <desc>Created with Sketch.</desc>
    <defs></defs>
    <g id="Page-1" stroke="none" stroke-width="1" fill="none" fill-rule="evenodd">
        <g id="ABOUT-COMPANY---Overview" transform="translate(-137.000000, -824.000000)" fill="#B1B3B5" fill-rule="nonzero">
            <g id="help" transform="translate(137.000000, 824.000000)">
                <path d="M24.9869119,34 C23.8889389,34 23,34.9090909 23,36 C23,37.0649031 23.8627627,38 24.9869119,38 C26.1110611,38 27,37.0649776 27,36 C27,34.9090909 26.085035,34 24.9869119,34 Z" id="Shape"></path>
                <path d="M26.2072715,15 C21.2682522,15 19,17.957118 19,19.9532389 C19,21.3949466 20.2072295,22.0602849 21.1950964,22.0602849 C23.1706201,22.0602849 22.3658004,19.2139859 26.0974852,19.2139859 C27.9268021,19.2139859 29.3902347,20.0272596 29.3902347,21.7276157 C29.3902347,23.7238427 27.3414501,24.8696795 26.1341156,25.9046973 C25.0731979,26.8287901 23.6829212,28.3444124 23.6829212,31.5233806 C23.6829212,33.4454807 24.1950124,34 25.6950754,34 C27.4877619,34 27.8535413,33.1868323 27.8535413,32.4844837 C27.8535413,30.5622774 27.8902767,29.4533449 29.9024308,27.8639139 C30.8901927,27.0876506 34,24.5740207 34,21.0992878 C34,17.6245549 30.8901927,15 26.2072715,15 Z" id="Shape"></path>
                <path d="M26.5,0 C11.8541953,0 0,11.8522285 0,26.5 L0,50.9296875 C0,52.0731211 0.926878906,53 2.0703125,53 L26.5,53 C41.1457012,53 53,41.1477715 53,26.5 C53,11.8541953 41.1477715,0 26.5,0 Z M26.5,48.859375 L4.140625,48.859375 L4.140625,26.5 C4.140625,14.1426152 14.140959,4.140625 26.5,4.140625 C38.8573848,4.140625 48.859375,14.140959 48.859375,26.5 C48.859375,38.8573848 38.859041,48.859375 26.5,48.859375 Z" id="Shape"></path>
            </g>
        </g>
    </g>
</svg>