<?xml version="1.0" encoding="UTF-8"?>
<svg width="16px" height="21px" viewBox="0 0 16 21" version="1.1" xmlns="http://www.w3.org/2000/svg" xmlns:xlink="http://www.w3.org/1999/xlink">
    <!-- Generator: Sketch 49 (51002) - http://www.bohemiancoding.com/sketch -->
    <title>lock - anticon</title>
    <desc>Created with Sketch.</desc>
    <defs></defs>
    <g id="Page-1" stroke="none" stroke-width="1" fill="none" fill-rule="evenodd">
        <g id="Login" transform="translate(-631.000000, -377.000000)" fill="#307FE2">
            <g transform="translate(608.000000, 357.000000)" id="lock---anticon">
                <path d="M37.4137085,25.5246973 C37.8094217,26.4917268 38.0072754,27.5063 38.0072754,28.5684473 L38.0072754,38.9362207 C38.0072754,39.3483972 37.8648208,39.7050831 37.5799072,40.0062891 C37.2949937,40.307495 36.9467713,40.4580957 36.5352295,40.4580957 L24.5451782,40.4580957 C24.149465,40.4580957 23.8091567,40.307495 23.5242432,40.0062891 C23.2393296,39.7050831 23.096875,39.3483972 23.096875,38.9362207 L23.096875,28.5684473 C23.096875,27.5063 23.2947287,26.4917268 23.6904419,25.5246973 C24.0703266,24.5735206 24.6045315,23.7372904 25.2930725,23.0159814 C25.9816136,22.2946725 26.7690711,21.7279383 27.6554688,21.3157617 C28.5735235,20.9035852 29.5390493,20.6975 30.5520752,20.6975 C31.5651011,20.6975 32.5306269,20.9035852 33.4486816,21.3157617 C34.3509078,21.7279383 35.1423224,22.2907093 35.8229492,23.0040918 C36.503576,23.7333272 37.0338238,24.5735206 37.4137085,25.5246973 Z M28.225293,22.7187402 C27.5446662,23.0199462 26.9273628,23.4638219 26.3733643,24.0503809 C25.8193657,24.6369398 25.3840877,25.3106798 25.0675171,26.0716211 C24.7509465,26.8642683 24.5926636,27.6965354 24.5926636,28.5684473 L24.5926636,29.2104883 L36.5114868,29.2104883 L36.5114868,28.5684473 C36.5114868,27.6965354 36.3452897,26.8642683 36.0128906,26.0716211 C35.7121486,25.3106798 35.2847847,24.6369398 34.7307861,24.0503809 C34.1767876,23.4638219 33.5436559,23.0120198 32.8313721,22.6949609 C32.1032597,22.3620491 31.3435017,22.1955957 30.5520752,22.1955957 C29.7448202,22.1955957 28.9850622,22.3620491 28.2727783,22.6949609 L28.2490356,22.7187402 L28.225293,22.7187402 Z M36.5114868,30.7323633 L24.5926636,30.7323633 L24.5926636,38.96 L36.5114868,38.96 L36.5114868,30.7323633 Z M29.8635376,34.1090234 C29.4678244,33.8553763 29.2699707,33.4907641 29.2699707,33.0151758 C29.2699707,32.666411 29.396597,32.3652096 29.6498535,32.1115625 C29.90311,31.8579154 30.2078046,31.7310938 30.5639465,31.7310938 C30.9200885,31.7310938 31.220826,31.8579154 31.4661682,32.1115625 C31.7115104,32.3652096 31.8341797,32.666411 31.8341797,33.0151758 C31.8341797,33.4907641 31.6442402,33.8553763 31.2643555,34.1090234 L31.2643555,36.0827051 C31.2643555,36.2729404 31.1931282,36.4354306 31.0506714,36.5701807 C30.9082146,36.7049307 30.7420176,36.7723047 30.5520752,36.7723047 C30.3621328,36.7723047 30.1998928,36.7049307 30.0653503,36.5701807 C29.9308078,36.4354306 29.8635376,36.2729404 29.8635376,36.0827051 L29.8635376,34.1090234 Z"></path>
            </g>
        </g>
    </g>
</svg>