<?xml version="1.0" encoding="UTF-8"?>
<svg width="46px" height="46px" viewBox="0 0 46 46" version="1.1" xmlns="http://www.w3.org/2000/svg" xmlns:xlink="http://www.w3.org/1999/xlink">
    <!-- Generator: Sketch 49 (51002) - http://www.bohemiancoding.com/sketch -->
    <title>Group 17</title>
    <desc>Created with Sketch.</desc>
    <defs></defs>
    <g id="Page-1" stroke="none" stroke-width="1" fill="none" fill-rule="evenodd">
        <g id="MCS-landing-page" transform="translate(-714.000000, -5778.000000)" fill="#FFFFFF" fill-rule="nonzero">
            <g id="Group-17" transform="translate(714.000000, 5778.000000)">
                <path d="M31.556437,19.2621131 C31.556437,19.0216093 31.5523582,18.7832863 31.5422341,18.547144 C32.5046842,17.7801489 33.3394536,16.8203925 34,15.7219259 C33.1165765,16.1466237 32.1683292,16.4304306 31.1714278,16.5495142 C32.1885776,15.880029 32.9686473,14.8097562 33.3374142,13.5249926 C32.3850881,14.1424517 31.3315205,14.5844397 30.211017,14.8141176 C29.3134634,13.7221153 28.0329399,13.026695 26.616578,13.000682 C23.8974778,12.9530174 21.6930342,15.4099252 21.6930342,18.4885757 C21.6930342,18.9262022 21.7355702,19.3509001 21.8206422,19.7603328 C17.7258224,19.4787066 14.0970049,17.1994507 11.6696115,13.7633156 C11.246145,14.5866204 11.0030196,15.5485575 11.0030196,16.5798887 C11.0030196,18.5298539 11.8722402,20.2630698 13.1932603,21.285678 C12.3848575,21.2467363 11.6270754,20.984581 10.962523,20.5555217 C10.962523,20.579354 10.962523,20.6031863 10.962523,20.6270186 C10.962523,23.352624 12.6604675,25.6361635 14.9134925,26.1691192 C14.5001502,26.294745 14.0645202,26.3597776 13.6167267,26.3576747 C13.2986535,26.355494 12.9906315,26.3186552 12.6907672,26.2492611 C13.3168624,28.4830332 15.1363696,30.1144555 17.2901195,30.1685844 C15.6043386,31.6634773 13.4809611,32.5560982 11.1752031,32.5496339 C10.7780303,32.5496339 10.3850092,32.521518 10,32.469492 C12.1801893,34.0684369 14.7675299,34.9999995 17.5494144,34.9999995 C26.6044144,35.0022582 31.556437,26.5742683 31.556437,19.2621131 Z" id="Shape"></path>
                <path d="M46,23 C46,10.2976863 35.7022386,0 23,0 C10.2976863,0 0,10.2976863 0,23 C0,35.7022386 10.2976863,46 23,46 C35.7022386,46 46,35.7022386 46,23 Z M2.09089542,23 C2.09089542,11.4518954 11.4518954,2.09089542 23,2.09089542 C34.5481046,2.09089542 43.9091046,11.4518954 43.9091046,23 C43.9091046,34.5481046 34.5481046,43.9091046 23,43.9091046 C11.4518954,43.9091046 2.09089542,34.5481046 2.09089542,23 Z" id="Shape"></path>
            </g>
        </g>
    </g>
</svg>