<?xml version="1.0" encoding="UTF-8"?>
<svg width="61px" height="61px" viewBox="0 0 61 61" version="1.1" xmlns="http://www.w3.org/2000/svg" xmlns:xlink="http://www.w3.org/1999/xlink">
    <!-- Generator: Sketch 49 (51002) - http://www.bohemiancoding.com/sketch -->
    <title>Group</title>
    <desc>Created with Sketch.</desc>
    <defs></defs>
    <g id="Page-1" stroke="none" stroke-width="1" fill="none" fill-rule="evenodd">
        <g id="ABOUT-COMPANY---Overview" transform="translate(-136.000000, -706.000000)">
            <g id="Group" transform="translate(136.000000, 706.000000)">
                <g id="aim" fill="#B1B3B5" fill-rule="nonzero">
                    <path d="M59.7447853,29.2450305 L56.2233199,29.2450305 C55.5937513,16.0010449 44.9989551,5.40624868 31.7554598,4.77668021 L31.7554598,1.25521466 C31.7554598,0.561904623 31.1935552,0 30.5002451,0 C29.8069352,0 29.2450305,0.561904623 29.2450305,1.25521466 L29.2450305,4.77668021 C16.0010449,5.40624868 5.40624868,16.0010449 4.77668021,29.2450305 L1.25521466,29.2450305 C0.561904623,29.2450305 0,29.8069352 0,30.5002451 C0,31.1935552 0.561904623,31.7554598 1.25521466,31.7554598 L4.77668021,31.7554598 C5.40624868,44.9989551 16.0010449,55.5937513 29.2450305,56.2233199 L29.2450305,59.7447853 C29.2450305,60.4380954 29.8069352,61 30.5002451,61 C31.1935552,61 31.7554598,60.4380954 31.7554598,59.7447853 L31.7554598,56.2233199 C44.9989551,55.5937513 55.5937513,44.9989551 56.2233199,31.7554598 L59.7447853,31.7554598 C60.4380954,31.7554598 61,31.1935552 61,30.5002451 C61,29.8069352 60.4380954,29.2450305 59.7447853,29.2450305 Z M47.0257094,47.0257094 C42.9596315,51.1100186 37.5178277,53.5337992 31.7616568,53.8235294 L31.7616568,48.3920732 C31.7616568,47.695341 31.1969786,47.1306627 30.5002463,47.1306627 C29.8035141,47.1306627 29.2388358,47.695341 29.2388358,48.3920732 L29.2388358,53.8235294 C17.323434,53.1967661 7.80323393,43.6765659 7.17647059,31.7616568 L12.6079267,31.7616568 C13.304659,31.7616568 13.8693372,31.1969786 13.8693372,30.5002463 C13.8693372,29.8035141 13.304659,29.2388358 12.6079267,29.2388358 L7.17647059,29.2388358 C7.80323393,17.323434 17.323434,7.80323393 29.2388358,7.17647059 L29.2388358,12.6084196 C29.2388358,13.304659 29.8035141,13.8698301 30.5002463,13.8698301 C31.1969786,13.8698301 31.7616568,13.304659 31.7616568,12.6084196 L31.7616568,7.17647059 C43.6765659,7.80323393 53.1967661,17.323434 53.8235294,29.2388358 L48.3920732,29.2388358 C47.695341,29.2388358 47.1306627,29.8035141 47.1306627,30.5002463 C47.1306627,31.1969786 47.695341,31.7616568 48.3920732,31.7616568 L53.8235294,31.7616568 C53.5337992,37.5178277 51.1100186,42.9596315 47.0257094,47.0257094 Z" id="Shape"></path>
                </g>
                <circle id="Oval-5" stroke="#B1B3B5" stroke-width="0.5" cx="30.5" cy="30.5" r="12.5"></circle>
            </g>
        </g>
    </g>
</svg>